<svg xmlns="http://www.w3.org/2000/svg" viewBox="0 0 504 196" role="img" aria-label="Syllago">
  <title>Syllago</title>
  <style>
    .sf { fill: #047857; }
    .sd { fill: #047857; opacity: 0.4; }
    .lf { fill: #6D28D9; }
    .ld { fill: #6D28D9; opacity: 0.4; }
    @media (prefers-color-scheme: dark) {
      .sf { fill: #6EE7B7; }
      .sd { fill: #6EE7B7; opacity: 0.4; }
      .lf { fill: #C4B5FD; }
      .ld { fill: #C4B5FD; opacity: 0.4; }
    }
  </style>
    <rect x="16" y="0" width="72" height="16" class="sf"/>
    <rect x="192" y="0" width="32" height="16" class="sf"/>
    <rect x="240" y="0" width="32" height="16" class="lf"/>
    <rect x="8" y="18" width="24" height="16" class="sf"/>
    <rect x="32" y="18" width="40" height="16" class="sd"/>
    <rect x="72" y="18" width="24" height="16" class="sf"/>
    <rect x="184" y="18" width="16" height="16" class="sd"/>
    <rect x="200" y="18" width="24" height="16" class="sf"/>
    <rect x="232" y="18" width="16" height="16" class="ld"/>
    <rect x="248" y="18" width="24" height="16" class="lf"/>
    <rect x="0" y="36" width="8" height="16" class="sd"/>
    <rect x="8" y="36" width="24" height="16" class="sf"/>
    <rect x="64" y="36" width="24" height="16" class="sd"/>
    <rect x="104" y="36" width="40" height="16" class="sf"/>
    <rect x="152" y="36" width="32" height="16" class="sf"/>
    <rect x="192" y="36" width="8" height="16" class="sd"/>
    <rect x="200" y="36" width="24" height="16" class="sf"/>
    <rect x="240" y="36" width="8" height="16" class="ld"/>
    <rect x="248" y="36" width="24" height="16" class="lf"/>
    <rect x="296" y="36" width="48" height="16" class="lf"/>
    <rect x="376" y="36" width="56" height="16" class="lf"/>
    <rect x="448" y="36" width="48" height="16" class="lf"/>
    <rect x="0" y="54" width="16" height="16" class="sd"/>
    <rect x="16" y="54" width="72" height="16" class="sf"/>
    <rect x="96" y="54" width="16" height="16" class="sd"/>
    <rect x="112" y="54" width="24" height="16" class="sf"/>
    <rect x="144" y="54" width="8" height="16" class="sd"/>
    <rect x="152" y="54" width="24" height="16" class="sf"/>
    <rect x="192" y="54" width="8" height="16" class="sd"/>
    <rect x="200" y="54" width="24" height="16" class="sf"/>
    <rect x="240" y="54" width="8" height="16" class="ld"/>
    <rect x="248" y="54" width="24" height="16" class="lf"/>
    <rect x="288" y="54" width="40" height="16" class="ld"/>
    <rect x="328" y="54" width="24" height="16" class="lf"/>
    <rect x="368" y="54" width="24" height="16" class="lf"/>
    <rect x="392" y="54" width="16" height="16" class="ld"/>
    <rect x="408" y="54" width="24" height="16" class="lf"/>
    <rect x="440" y="54" width="24" height="16" class="lf"/>
    <rect x="464" y="54" width="16" height="16" class="ld"/>
    <rect x="480" y="54" width="24" height="16" class="lf"/>
    <rect x="8" y="72" width="64" height="16" class="sd"/>
    <rect x="72" y="72" width="24" height="16" class="sf"/>
    <rect x="104" y="72" width="8" height="16" class="sd"/>
    <rect x="112" y="72" width="24" height="16" class="sf"/>
    <rect x="144" y="72" width="8" height="16" class="sd"/>
    <rect x="152" y="72" width="24" height="16" class="sf"/>
    <rect x="192" y="72" width="8" height="16" class="sd"/>
    <rect x="200" y="72" width="24" height="16" class="sf"/>
    <rect x="240" y="72" width="8" height="16" class="ld"/>
    <rect x="248" y="72" width="24" height="16" class="lf"/>
    <rect x="296" y="72" width="56" height="16" class="lf"/>
    <rect x="360" y="72" width="8" height="16" class="ld"/>
    <rect x="368" y="72" width="24" height="16" class="lf"/>
    <rect x="400" y="72" width="8" height="16" class="ld"/>
    <rect x="408" y="72" width="24" height="16" class="lf"/>
    <rect x="432" y="72" width="8" height="16" class="ld"/>
    <rect x="440" y="72" width="24" height="16" class="lf"/>
    <rect x="472" y="72" width="8" height="16" class="ld"/>
    <rect x="480" y="72" width="24" height="16" class="lf"/>
    <rect x="8" y="90" width="24" height="16" class="sf"/>
    <rect x="64" y="90" width="8" height="16" class="sd"/>
    <rect x="72" y="90" width="24" height="16" class="sf"/>
    <rect x="104" y="90" width="8" height="16" class="sd"/>
    <rect x="112" y="90" width="24" height="16" class="sf"/>
    <rect x="144" y="90" width="8" height="16" class="sd"/>
    <rect x="152" y="90" width="24" height="16" class="sf"/>
    <rect x="192" y="90" width="8" height="16" class="sd"/>
    <rect x="200" y="90" width="24" height="16" class="sf"/>
    <rect x="240" y="90" width="8" height="16" class="ld"/>
    <rect x="248" y="90" width="24" height="16" class="lf"/>
    <rect x="288" y="90" width="24" height="16" class="lf"/>
    <rect x="312" y="90" width="16" height="16" class="ld"/>
    <rect x="328" y="90" width="24" height="16" class="lf"/>
    <rect x="360" y="90" width="8" height="16" class="ld"/>
    <rect x="368" y="90" width="24" height="16" class="lf"/>
    <rect x="400" y="90" width="8" height="16" class="ld"/>
    <rect x="408" y="90" width="24" height="16" class="lf"/>
    <rect x="432" y="90" width="8" height="16" class="ld"/>
    <rect x="440" y="90" width="24" height="16" class="lf"/>
    <rect x="472" y="90" width="8" height="16" class="ld"/>
    <rect x="480" y="90" width="24" height="16" class="lf"/>
    <rect x="0" y="108" width="16" height="16" class="sd"/>
    <rect x="16" y="108" width="72" height="16" class="sf"/>
    <rect x="104" y="108" width="16" height="16" class="sd"/>
    <rect x="120" y="108" width="56" height="16" class="sf"/>
    <rect x="192" y="108" width="40" height="16" class="sf"/>
    <rect x="240" y="108" width="40" height="16" class="lf"/>
    <rect x="280" y="108" width="16" height="16" class="ld"/>
    <rect x="296" y="108" width="64" height="16" class="lf"/>
    <rect x="360" y="108" width="16" height="16" class="ld"/>
    <rect x="376" y="108" width="56" height="16" class="lf"/>
    <rect x="432" y="108" width="16" height="16" class="ld"/>
    <rect x="448" y="108" width="48" height="16" class="lf"/>
    <rect x="8" y="126" width="72" height="16" class="sd"/>
    <rect x="112" y="126" width="40" height="16" class="sd"/>
    <rect x="152" y="126" width="24" height="16" class="sf"/>
    <rect x="184" y="126" width="40" height="16" class="sd"/>
    <rect x="232" y="126" width="40" height="16" class="ld"/>
    <rect x="288" y="126" width="64" height="16" class="ld"/>
    <rect x="368" y="126" width="40" height="16" class="ld"/>
    <rect x="408" y="126" width="24" height="16" class="lf"/>
    <rect x="440" y="126" width="48" height="16" class="ld"/>
    <rect x="112" y="144" width="24" height="16" class="sf"/>
    <rect x="144" y="144" width="8" height="16" class="sd"/>
    <rect x="152" y="144" width="24" height="16" class="sf"/>
    <rect x="368" y="144" width="24" height="16" class="lf"/>
    <rect x="400" y="144" width="8" height="16" class="ld"/>
    <rect x="408" y="144" width="24" height="16" class="lf"/>
    <rect x="104" y="162" width="16" height="16" class="sd"/>
    <rect x="120" y="162" width="48" height="16" class="sf"/>
    <rect x="360" y="162" width="16" height="16" class="ld"/>
    <rect x="376" y="162" width="48" height="16" class="lf"/>
    <rect x="112" y="180" width="48" height="16" class="sd"/>
    <rect x="368" y="180" width="48" height="16" class="ld"/>
</svg>